General                          : ChattChitto RG - Movies [R2L]
==========
Complete name                    : Life As We Know It 2010 720p BRRip H264 [ChattChitto RG]
Format                           : MPEG-4
Format profile                   : Base Media
Codec ID                         : isom
File size                        : 2.10 GiB
Duration                         : 1h 54mn
Overall bit rate                 : 2 619 Kbps
Encoded date                     : UTC 2011-01-21 18:29:11

Video
==========
ID                               : 1
Format                           : AVC
Format/Info                      : Advanced Video Codec
Format profile                   : High@L4.0
Format settings, CABAC           : Yes
Format settings, ReFrames        : 4 frames
Codec ID                         : avc1
Codec ID/Info                    : Advanced Video Coding
Duration                         : 1h 54mn
Bit rate mode                    : Variable
Bit rate                         : 2 300 Kbps
Maximum bit rate                 : 9 828 Kbps
Width                            : 1 280 pixels
Height                           : 528 pixels
Display aspect ratio             : 2.40:1
Frame rate mode                  : Constant
Frame rate                       : 23.976 fps
Resolution                       : 24 bits
Colorimetry                      : 4:2:0
Scan type                        : Progressive
Bits/(Pixel*Frame)               : 0.142
Stream size                      : 1.84 GiB (88%)
Writing library                  : x264 core 84 r1400M 20fa784
Encoded date                     : UTC 2011-01-21 17:52:03

Audio
==========
ID                               : 2
Format                           : AAC
Format/Info                      : Advanced Audio Codec
Format version                   : Version 4
Format profile                   : LC
Format settings, SBR             : No
Codec ID                         : 40
Duration                         : 1h 54mn
Bit rate mode                    : Variable
Bit rate                         : 315 Kbps
Maximum bit rate                 : 436 Kbps
Channel(s)                       : 6 channels
Channel positions                : Front: L C R, Rear: L R, LFE
Sampling rate                    : 48.0 KHz
Resolution                       : 16 bits
Stream size                      : 259 MiB (12%)
Encoded date                     : UTC 2011-01-21 18:30:17

Subtitles                        : English | Portuguese | Romanian


----------------------------------------------------
IMDB Link: http://www.imdb.com/title/tt1055292/
----------------------------------------------------



Screen Shots:
==============    
http://bayimg.com/HAdjnAaDh 
http://bayimg.com/iAdJAAADh 
http://bayimg.com/iaDJbaaDh 
http://bayimg.com/IadJfaADh 
http://bayimg.com/iadJHAADh



ScreenShots Comparison:
=========================  
http://screenshotcomparison.com/comparison/21845



Plot:
======
Holly Berenson is an up-and-coming caterer and Eric Messer is a promising network sports director. After a disastrous first date, the only thing they have in common is their dislike for each other and their love for their goddaughter, Sophie. But when they suddenly become all Sophie has in the world, Holly and Eric are forced to put their differences aside. Juggling career ambitions and competing social calendars, they'll have to find some common ground while living under one roof.



Release Info:
==============
original name .... : Life As We Know It 2010 720p BRRip H264 [ChattChitto RG]
ripper.............: SECTOR7
encoder............: Recalled2Life (R2L)
video codec........: H264/.MP4
video bitrate......: 2300 Kbps
audio codec........: AAC-LC
aspect ratio.......: 2.40:1 
resolution.........: 1280 x 528
genre..............: Comedy | Drama
runtime............: 1h 54mn
language...........: English
rating.............: PG-13
subtitles..........: English | Portuguese | Romanian
sample.............: Yes [21.7 MB]
2ch Audio..........: 2ch Audio for XBox Viewers  
Compatibility .....: XBox | PS3 | WD Live



Source:
========
Life.As.We.Know.It.2010.1080p.BluRay.x264-SECTOR7  THANKS!



Notes:
=======
ChattChitto RG Encourages Burning this Film with ConvertXtoDVD.
XBox 360 | PS3 | WD Live - Compatible
Enhanced and Filtered for your viewing pleasure ;)